# xmcd
#
# Track frame offsets:
#	150
#	18167
#	26695
#	32977
#
# Disc length: 535 seconds
#
# Revision: 1
# Processed by: cddbd v1.4PL0 Copyright (c) Steve Scherf et al.
# Submitted via: audiograbber 1.81.01
#
DISCID=27021504
DTITLE=The Warren Brothers - Guilty
DYEAR=1998
DGENRE=Country
TTITLE0=Guilty
TTITLE1=Just Another Sad Song
TTITLE2=Better Man
TTITLE3=I Tried
EXTD=
EXTT0=
EXTT1=
EXTT2=
EXTT3=
PLAYORDER=
